<?xml version="1.0" encoding="utf-8"?>
<!-- Generator: Adobe Illustrator 19.0.0, SVG Export Plug-In . SVG Version: 6.00 Build 0)  -->
<svg version="1.1" id="layer" xmlns="http://www.w3.org/2000/svg" xmlns:xlink="http://www.w3.org/1999/xlink" x="0px" y="0px"
	 viewBox="-153 -46 652 652" style="enable-background:new -153 -46 652 652;" xml:space="preserve">
<style type="text/css">
	.st0{fill-rule:evenodd;clip-rule:evenodd;fill:#009844;}
	.st1{fill-rule:evenodd;clip-rule:evenodd;fill:#E50012;}
	.st2{fill:#009844;}
</style>
<path class="st0" d="M196.9,259.9l-52.5-52.5l-0.7-0.6l-0.8-0.6l-0.8-0.5l-0.4-0.2l-0.9-0.4l-0.5-0.2l-0.9-0.2l-1-0.2l-0.5,0l-1,0
	H107v41l0,0.6l0,0.6l0.1,0.6l0.1,0.6l0.1,0.6l0.2,0.6l0.2,0.5l0.2,0.5l0.2,0.5l0.3,0.5l0.3,0.5l0.3,0.5l0.4,0.5l0.4,0.4l0.8,0.8
	l0.9,0.7l1,0.6l1,0.5l1.1,0.4l0.6,0.2l1.1,0.2l0.6,0.1l0.6,0l0.6,0H189l0.5,0l0.5,0l0.5,0.1l0.5,0.1l0.5,0.1l0.5,0.1l0.5,0.1
	l0.5,0.2l0.5,0.2l0.4,0.2l0.4,0.2l0.4,0.2l0.4,0.3l0.4,0.3l0.4,0.3l0.4,0.3l0.4,0.3L196.9,259.9z M10.5,353.1l-0.4-0.4l-0.4-0.4
	L9.2,352l-0.5-0.3l-0.5-0.3l-0.5-0.3l-0.5-0.3l-0.5-0.2l-0.6-0.2l-0.6-0.2l-0.6-0.1L4.4,350l-0.6-0.1l-0.6,0l-0.6,0h-41v29.8l0,1
	l0.1,1l0.1,0.5l0.2,0.9l0.2,0.5l0.4,0.9l0.4,0.9l0.5,0.8l0.6,0.8l0.7,0.7l51.9,51.8l-0.3-0.4l-0.3-0.4l-0.3-0.4l-0.3-0.4l-0.2-0.4
	l-0.2-0.4l-0.2-0.4l-0.2-0.4l-0.2-0.4l-0.2-0.5l-0.1-0.5l-0.1-0.5l-0.1-0.5l-0.1-0.5l0-0.5l0-0.5l0-0.5l0-71.4l0-0.6l-0.2-1.2
	l-0.1-0.6l-0.4-1.1l-0.5-1.1l-0.6-1l-0.7-0.9L10.5,353.1z"/>
<polygon class="st1" points="103.7,166.7 51.2,114.2 50.4,113.6 49.6,113 48.8,112.5 48.4,112.3 47.5,111.9 47,111.8 46,111.5 
	45.1,111.3 44.6,111.3 43.6,111.2 -27.2,111.2 -28.2,111.3 -29.2,111.4 -29.6,111.5 -30.6,111.8 -31,111.9 -31.9,112.3 -32.8,112.7 
	-33.6,113.3 -34,113.6 -34.8,114.2 -35.4,114.9 -36.1,115.6 -36.6,116.4 -37.1,117.3 -37.3,117.7 -37.7,118.6 -37.9,119.1 
	-38.1,120 -38.3,121 -38.3,121.4 -38.4,122.4 -38.4,193.3 -38.4,193.8 -38.5,194.4 -38.6,195.6 -38.8,196.2 -39.1,197.3 
	-39.6,198.3 -40.2,199.4 -40.9,200.3 -41.3,200.7 -42.1,201.6 -43,202.3 -44,202.9 -45,203.5 -46.1,203.9 -46.7,204.1 -47.8,204.3 
	-48.4,204.4 -49.6,204.4 -120.4,204.4 -121.4,204.5 -122.3,204.6 -122.8,204.7 -123.8,205 -124.2,205.1 -125.1,205.5 -126,205.9 
	-126.8,206.5 -127.2,206.8 -128,207.4 -128.6,208.1 -129.3,208.8 -129.8,209.6 -130.3,210.5 -130.5,210.9 -130.9,211.8 
	-131.1,212.3 -131.3,213.2 -131.5,214.2 -131.5,214.7 -131.6,215.6 -131.6,286.5 -131.5,287.4 -131.4,288.4 -131.3,288.9 
	-131.1,289.8 -130.9,290.3 -130.5,291.2 -130.1,292.1 -129.6,292.9 -129,293.7 -128.3,294.4 -76.5,346.2 -76.8,345.8 -77.1,345.5 
	-77.4,345.1 -77.6,344.7 -77.9,344.2 -78.1,343.8 -78.4,343.4 -78.5,342.9 -78.7,342.5 -78.9,342 -79,341.5 -79.1,341.1 
	-79.2,340.6 -79.3,340.1 -79.3,339.6 -79.4,339.1 -79.4,338.7 -79.4,267.8 -79.4,267.3 -79.3,266.8 -79.3,266.4 -79.2,265.9 
	-79.1,265.4 -79,264.9 -78.9,264.5 -78.7,264 -78.5,263.5 -78.4,263.1 -78.1,262.7 -77.9,262.2 -77.6,261.8 -77.4,261.4 -77.1,261 
	-76.8,260.6 -76.5,260.3 -76.1,259.9 -75.8,259.6 -75.4,259.3 -75,259 -74.6,258.7 -74.2,258.4 -73.8,258.1 -73.4,257.9 
	-72.9,257.7 -72.5,257.5 -72,257.3 -71.6,257.2 -71.1,257 -70.6,256.9 -70.2,256.8 -69.7,256.7 -69.2,256.7 -68.7,256.7 
	-68.2,256.6 3.2,256.6 3.8,256.6 4.9,256.4 5.5,256.3 6.6,255.9 7.7,255.4 8.7,254.8 9.7,254.1 10.1,253.8 10.9,252.9 11.7,252 
	12.3,251 12.8,250 13.3,248.9 13.4,248.3 13.7,247.2 13.7,246.6 13.8,246 13.8,245.5 13.8,174.6 13.8,174.1 13.9,173.6 13.9,173.2 
	14,172.7 14.1,172.2 14.2,171.7 14.3,171.3 14.5,170.8 14.7,170.3 14.8,169.9 15.1,169.5 15.3,169 15.6,168.6 15.8,168.2 
	16.1,167.8 16.4,167.4 16.7,167.1 17.1,166.7 17.4,166.4 17.8,166.1 18.2,165.7 18.6,165.5 19,165.2 19.4,164.9 19.8,164.7 
	20.3,164.5 20.7,164.3 21.2,164.1 21.6,163.9 22.1,163.8 22.6,163.7 23,163.6 23.5,163.5 24,163.5 24.5,163.4 25,163.4 95.8,163.4 
	96.3,163.4 96.8,163.5 97.3,163.5 97.8,163.6 98.2,163.7 98.7,163.8 99.2,163.9 99.6,164.1 100.1,164.3 100.5,164.5 101,164.7 
	101.4,164.9 101.8,165.2 102.2,165.5 102.6,165.7 103,166.1 103.4,166.4 "/>
<path class="st2" d="M414.5,407.1c3.6,4,7.1,7,10.5,9c3.5,2,6.9,3,10.3,3c3.2,0,5.8-0.9,7.9-2.6c2.1-1.7,3.1-3.9,3.1-6.5
	c0-2.9-0.9-5.2-2.7-6.7c-1.8-1.6-5.8-3.2-12.1-4.9c-8.6-2.3-14.7-5.3-18.2-9c-3.6-3.7-5.3-8.8-5.3-15.3c0-8.4,2.8-15.2,8.4-20.5
	c5.6-5.3,12.9-7.9,21.8-7.9c4.8,0,9.4,0.7,13.8,1.9c4.3,1.3,8.4,3.3,12.3,5.9l-7.5,17.2c-2.7-2.3-5.5-4.1-8.4-5.2
	c-2.9-1.2-5.7-1.8-8.5-1.8c-2.9,0-5.2,0.7-7,2.1c-1.8,1.4-2.7,3.1-2.7,5.3c0,2.2,0.8,4,2.4,5.3c1.6,1.3,4.6,2.6,9.1,3.8l1.1,0.3
	c9.7,2.6,16.1,5.5,19.2,8.7c2.1,2.2,3.7,4.7,4.7,7.8c1.1,3,1.6,6.4,1.6,10c0,9.3-3,16.8-9.2,22.4c-6.1,5.7-14.2,8.5-24.4,8.5
	c-6.1,0-11.7-1-16.7-3.1c-5-2.1-9.8-5.3-14.5-9.8L414.5,407.1z M311.7,435.4l30.2-87.6h29.9l30.3,87.6h-23.8l-4.4-15.7h-33.9
	l-4.6,15.7H311.7z M345.2,402.7H369l-8.9-28.9c-0.3-0.9-0.7-2.3-1.1-4.2c-0.5-1.9-1.1-4.5-1.9-7.5c-0.5,2.2-1,4.2-1.5,6.2
	c-0.5,2-1,3.8-1.5,5.6L345.2,402.7z M272.8,387.2h4.6c5.7,0,9.7-0.8,12-2.4c2.3-1.6,3.4-4.2,3.4-8c0-3.7-1.1-6.3-3.4-7.8
	c-2.2-1.6-6.2-2.3-11.9-2.3h-4.8V387.2z M272.8,435.4h-22.4v-87.6h25c9.8,0,16.6,0.5,20.6,1.4c3.9,1,7.3,2.6,10.1,4.9
	c3.2,2.7,5.7,6,7.4,10c1.7,4,2.5,8.5,2.5,13.4c0,5.2-0.8,9.8-2.5,13.8c-1.7,4-4.1,7.2-7.4,9.8c-2.5,1.9-5.4,3.3-8.7,4.1
	c-3.4,0.8-8.7,1.3-16.1,1.3h-4.1h-4.3V435.4z M146,435.4v-87.6H169l33.1,45.1c0.6,0.9,1.7,2.8,3.1,5.5c1.5,2.8,3,6.1,4.8,9.9
	c-0.5-3.6-0.8-6.9-1-9.7c-0.2-2.8-0.3-5.3-0.3-7.5v-43.3h22.9v87.6h-22.9l-33.1-45.3c-0.7-0.9-1.7-2.8-3.2-5.5c-1.5-2.8-3-6-4.7-9.8
	c0.5,3.7,0.8,6.9,1,9.8c0.2,2.8,0.3,5.3,0.3,7.5v43.3H146z M47.1,435.4l30.2-87.6h29.9l30.3,87.6h-23.8l-4.4-15.7H75.5l-4.6,15.7
	H47.1z M80.6,402.7h23.8l-8.9-28.9c-0.3-0.9-0.7-2.3-1.1-4.2c-0.5-1.9-1.1-4.5-1.9-7.5c-0.5,2.2-1,4.2-1.5,6.2c-0.5,2-1,3.8-1.5,5.6
	L80.6,402.7z"/>
</svg>
