<!DOCTYPE svg PUBLIC "-//W3C//DTD SVG 20010904//EN" "http://www.w3.org/TR/2001/REC-SVG-20010904/DTD/svg10.dtd">
<svg xmlns="http://www.w3.org/2000/svg" version="1.0" width="775px" height="368px" viewBox="0 0 7750 3680" preserveAspectRatio="xMidYMid meet">
<g id="layer1" stroke="none">
 <path d="M3052 3253 l-213 -3 22 -38 c13 -20 68 -107 123 -192 55 -85 222 -346 371 -580 149 -234 333 -522 409 -640 255 -398 573 -897 646 -1014 40 -64 85 -130 100 -146 l28 -30 961 0 c529 0 961 3 961 8 0 4 -32 130 -72 279 l-73 273 -686 0 -687 0 -41 148 c-22 81 -45 170 -51 197 -6 28 -13 58 -16 68 -5 16 32 17 681 17 633 0 687 1 681 16 -4 9 -17 56 -30 103 -94 340 -120 427 -128 436 -6 6 -254 12 -686 15 l-676 5 -19 60 c-27 89 -107 388 -107 403 0 9 147 12 700 12 396 0 700 4 700 9 0 15 -107 431 -133 516 l-24 80 -1264 0 c-695 0 -1360 -1 -1477 -2z" style="fill: black;"/>
 <path d="M1390 3233 c0 -10 -41 -600 -91 -1311 -51 -711 -89 -1296 -85 -1300 4 -4 151 -8 326 -10 l319 -3 5 23 c3 13 19 223 36 468 17 245 58 825 91 1290 32 465 59 848 59 853 0 4 -148 7 -330 7 -308 0 -330 -1 -330 -17z" style="fill: black;"/>
 <path d="M2596 2453 c-4 -15 -11 -156 -16 -313 -5 -157 -14 -359 -20 -450 -18 -277 -52 -1071 -46 -1077 1 -2 266 -2 588 -1 l586 3 -130 225 c-72 124 -258 446 -413 715 -341 592 -490 849 -520 893 l-22 33 -7 -28z" style="fill: black;"/>
 </g>

</svg>